<?xml version="1.0" standalone="no"?>
<!DOCTYPE svg PUBLIC "-//W3C//DTD SVG 20010904//EN"
 "http://www.w3.org/TR/2001/REC-SVG-20010904/DTD/svg10.dtd">
<svg version="1.0" xmlns="http://www.w3.org/2000/svg"
 width="317.000000pt" height="317.000000pt" viewBox="0 0 317.000000 317.000000"
 preserveAspectRatio="xMidYMid meet">
<metadata>
Created by potrace 1.11, written by Peter Selinger 2001-2013
</metadata>
<g transform="translate(0.000000,317.000000) scale(0.100000,-0.100000)"
fill="#000000" stroke="none">
<path d="M1401 3159 c-127 -15 -395 -87 -436 -118 -5 -4 -35 -18 -65 -31 -30
-12 -79 -38 -108 -56 -29 -19 -55 -34 -58 -34 -5 0 -72 -48 -84 -60 -3 -3 -23
-18 -45 -34 -73 -53 -244 -236 -313 -334 -88 -125 -165 -276 -203 -397 -17
-53 -57 -209 -64 -245 -38 -215 -31 -420 22 -625 8 -33 17 -71 19 -84 13 -70
117 -299 176 -387 16 -23 28 -46 28 -52 0 -6 4 -12 8 -14 4 -1 21 -21 37 -43
42 -56 56 -73 90 -110 17 -18 39 -44 51 -56 19 -21 79 -76 154 -140 77 -65
357 -223 412 -233 7 -1 39 -12 71 -24 32 -12 71 -23 85 -24 15 -1 32 -5 37 -9
13 -10 42 -15 180 -35 125 -19 329 -14 455 10 93 17 236 54 258 66 10 4 44 19
77 31 89 34 178 84 285 157 52 36 100 70 107 76 6 6 35 31 63 56 29 25 62 56
74 68 11 13 38 43 60 65 36 40 156 202 156 212 0 3 17 33 38 67 45 75 117 244
127 298 1 3 9 32 19 65 10 33 20 69 21 80 1 11 5 27 8 35 3 8 11 62 18 120 32
281 -30 612 -167 882 -33 66 -106 182 -116 186 -4 2 -8 9 -8 15 0 7 -14 28
-30 47 -61 72 -126 143 -149 164 -13 11 -37 35 -55 52 -33 32 -181 145 -206
157 -8 4 -28 16 -45 27 -16 11 -59 34 -95 50 -36 17 -78 37 -95 45 -98 47
-295 98 -440 115 -104 11 -248 11 -354 -1z m464 -44 c307 -79 580 -296 772
-611 22 -35 110 -218 128 -264 122 -318 147 -739 64 -1090 -11 -47 -21 -92
-23 -100 -2 -8 -6 -22 -9 -30 -3 -8 -18 -49 -33 -90 -79 -217 -201 -406 -366
-569 -187 -185 -407 -296 -652 -330 -434 -61 -873 164 -1139 581 -43 66 -125
224 -151 288 -33 82 -81 244 -90 305 -2 11 -6 34 -9 50 -7 32 -18 118 -23 175
-4 52 -4 249 1 295 16 163 20 194 40 275 9 36 18 70 19 75 7 32 38 133 46 150
5 11 19 45 32 75 47 116 153 298 218 375 68 81 183 193 249 243 144 108 347
195 521 222 100 16 294 4 405 -25z"/>
<path d="M907 2074 c-2 -2 -50 -6 -108 -8 -57 -3 -107 -5 -111 -5 -5 -1 -8 -5
-8 -11 0 -5 15 -10 33 -10 19 0 44 -10 62 -24 l29 -23 0 -392 c0 -301 -3 -396
-13 -415 -10 -18 -26 -27 -60 -33 -25 -4 -45 -13 -43 -18 1 -6 102 -10 275 -9
212 0 289 4 348 17 143 30 241 128 279 276 14 55 15 240 1 302 -12 51 -56 141
-96 194 -27 35 -117 105 -135 105 -6 0 -10 4 -10 9 0 10 -123 27 -265 36 -55
4 -117 8 -137 10 -20 1 -39 1 -41 -1z m251 -50 c70 -34 100 -99 127 -268 26
-162 -4 -480 -52 -552 -15 -21 -88 -54 -120 -54 l-33 0 0 438 c0 241 3 442 7
445 11 11 38 8 71 -9z"/>
<path d="M1971 2063 c-16 -17 -17 -16 37 -33 24 -7 48 -23 55 -34 8 -15 11
-136 12 -408 0 -382 0 -387 -21 -407 -12 -11 -38 -23 -58 -26 -21 -4 -36 -13
-36 -21 0 -11 44 -14 253 -13 205 1 254 3 254 14 0 9 -18 16 -48 20 -39 5 -49
11 -58 34 -8 19 -11 146 -9 420 3 379 4 393 23 407 11 8 31 17 45 20 52 12 57
14 36 26 -11 6 -108 11 -245 13 -183 1 -229 -1 -240 -12z"/>
</g>
</svg>
